<svg version="1.0" xmlns="http://www.w3.org/2000/svg" width="1706.667" height="1706.667" viewBox="0 0 1280 1280"><path d="M565.5 156.5c-3.8.8-10.8 3.3-15.5 5.6-6.9 3.4-10.2 5.9-17.5 13.3-9.6 9.7-13.6 16-17.7 28.1l-2.3 7-.3 155.2L512 521l-155.8.2-155.7.3-7.8 2.8c-10 3.5-17.5 8.3-25.5 16-12.3 12.1-18.3 24.6-20.3 42.3-.7 6.5-.9 35.1-.7 82.4.4 81 .1 77 7.8 92.5 7.5 15.3 21.9 27.8 38.9 33.9l8.6 3.1 155.3.3 155.2.2v151.3c.1 161.5 0 159.2 5 171.7 5.5 13.9 18.2 27.8 31.8 34.8 15.5 8.1 10.8 7.7 100.2 7.7 88.5 0 84.8.3 99.5-7 17.2-8.4 31.7-26.3 36-44.6 1.3-5.6 1.5-26.5 1.5-160.2V795h152c169.7 0 160.3.4 175.5-7 14.1-6.8 24.4-17.2 31.6-31.5 6.9-14.1 6.9-12.9 6.9-98.8 0-84.1 0-84.1-6-97.2-7.5-16.4-23.6-30.9-41-36.8l-6.5-2.2-156-.5-156-.5-.5-156-.5-156-2.2-6.5c-6.9-20-23.8-37-43.6-43.7l-8.2-2.8-79.5-.2c-64.6-.1-80.8.1-86.5 1.2z" fill="#cc9a9a"/></svg>